<?xml version="1.0" encoding="utf-8" ?>
<svg xmlns="http://www.w3.org/2000/svg" xmlns:ev="http://www.w3.org/2001/xml-events" xmlns:xlink="http://www.w3.org/1999/xlink" baseProfile="full" height="1024" version="1.1" width="1024">
  <defs/>
  <path d="M 705,466 L 704,467 L 702,467 L 699,470 L 699,476 L 700,477 L 700,480 L 701,481 L 701,495 L 702,496 L 702,498 L 703,499 L 703,500 L 704,501 L 704,502 L 705,503 L 705,504 L 709,508 L 710,508 L 711,509 L 712,509 L 713,510 L 714,510 L 715,511 L 722,511 L 723,510 L 725,510 L 726,509 L 727,509 L 730,506 L 731,506 L 732,505 L 732,504 L 737,499 L 743,499 L 744,500 L 745,499 L 749,499 L 752,496 L 752,491 L 745,484 L 744,484 L 736,476 L 735,476 L 732,473 L 731,473 L 729,471 L 728,471 L 727,470 L 726,470 L 725,469 L 724,469 L 723,468 L 722,468 L 721,467 L 719,467 L 718,466 Z" fill="black"/>
  <path d="M 825,352 L 824,353 L 822,353 L 821,354 L 819,354 L 817,356 L 816,356 L 810,362 L 810,363 L 807,366 L 807,367 L 805,369 L 805,370 L 802,373 L 802,374 L 799,377 L 797,377 L 796,378 L 771,378 L 770,379 L 763,379 L 762,380 L 758,380 L 757,381 L 753,381 L 752,382 L 749,382 L 748,383 L 745,383 L 744,384 L 742,384 L 741,385 L 739,385 L 738,386 L 736,386 L 735,387 L 733,387 L 732,388 L 731,388 L 730,389 L 728,389 L 727,390 L 726,390 L 725,391 L 724,391 L 723,392 L 722,392 L 721,393 L 720,393 L 719,394 L 718,394 L 717,395 L 716,395 L 715,396 L 714,396 L 713,397 L 712,397 L 710,399 L 709,399 L 707,401 L 706,401 L 704,403 L 703,403 L 701,405 L 700,405 L 697,408 L 696,408 L 691,413 L 690,413 L 680,423 L 680,424 L 676,428 L 676,429 L 673,432 L 673,433 L 671,435 L 671,436 L 670,437 L 670,438 L 668,440 L 668,441 L 667,442 L 667,443 L 666,444 L 666,445 L 665,446 L 665,448 L 664,449 L 664,451 L 663,452 L 663,454 L 662,455 L 662,458 L 661,459 L 661,464 L 660,465 L 660,467 L 659,468 L 659,470 L 658,471 L 658,473 L 657,474 L 657,475 L 655,477 L 655,478 L 653,480 L 653,481 L 643,491 L 642,491 L 639,494 L 638,494 L 636,496 L 635,496 L 634,497 L 633,497 L 632,498 L 631,498 L 630,499 L 629,499 L 628,500 L 626,500 L 625,501 L 624,501 L 623,502 L 622,502 L 621,503 L 620,503 L 619,504 L 618,504 L 617,505 L 616,505 L 615,506 L 614,506 L 613,507 L 612,507 L 611,508 L 610,508 L 609,509 L 608,509 L 606,511 L 605,511 L 604,512 L 603,512 L 602,513 L 601,513 L 599,515 L 598,515 L 597,516 L 596,516 L 594,518 L 593,518 L 591,520 L 590,520 L 589,521 L 588,521 L 586,523 L 585,523 L 582,526 L 581,526 L 579,528 L 578,528 L 574,532 L 573,532 L 572,533 L 572,534 L 570,536 L 570,537 L 569,538 L 569,539 L 568,540 L 568,551 L 569,552 L 569,554 L 570,555 L 570,557 L 571,558 L 571,559 L 572,560 L 572,561 L 574,563 L 574,564 L 575,565 L 575,566 L 578,569 L 578,570 L 580,572 L 580,573 L 582,575 L 582,576 L 583,577 L 583,578 L 584,579 L 584,580 L 585,581 L 585,582 L 586,583 L 586,584 L 587,585 L 587,586 L 588,587 L 588,588 L 590,590 L 590,591 L 591,592 L 591,593 L 593,595 L 593,596 L 596,599 L 596,600 L 601,605 L 601,606 L 608,613 L 609,613 L 613,617 L 614,617 L 617,620 L 618,620 L 620,622 L 621,622 L 622,623 L 623,623 L 625,625 L 626,625 L 627,626 L 628,626 L 629,627 L 630,627 L 631,628 L 633,628 L 634,629 L 635,629 L 636,630 L 638,630 L 639,631 L 641,631 L 642,632 L 644,632 L 645,633 L 649,633 L 650,634 L 656,634 L 657,635 L 680,635 L 681,634 L 701,634 L 702,635 L 706,635 L 707,636 L 708,636 L 709,637 L 710,637 L 712,639 L 713,639 L 716,642 L 716,643 L 719,646 L 719,647 L 721,649 L 721,651 L 722,652 L 722,653 L 723,654 L 723,656 L 724,657 L 724,659 L 725,660 L 725,663 L 726,664 L 726,670 L 727,671 L 727,690 L 726,691 L 726,697 L 725,698 L 725,702 L 724,703 L 724,706 L 723,707 L 723,710 L 722,711 L 722,713 L 721,714 L 721,716 L 720,717 L 720,719 L 719,720 L 719,722 L 718,723 L 718,724 L 717,725 L 717,727 L 716,728 L 716,729 L 715,730 L 715,732 L 714,733 L 714,734 L 713,735 L 713,737 L 712,738 L 712,739 L 711,740 L 711,742 L 710,743 L 710,744 L 709,745 L 709,747 L 708,748 L 708,750 L 707,751 L 707,752 L 706,753 L 706,755 L 705,756 L 705,758 L 704,759 L 704,762 L 703,763 L 703,765 L 702,766 L 702,769 L 701,770 L 701,773 L 700,774 L 700,779 L 699,780 L 699,785 L 698,786 L 698,793 L 697,794 L 697,806 L 698,807 L 698,808 L 699,809 L 699,810 L 703,814 L 704,814 L 705,815 L 712,815 L 713,814 L 714,814 L 719,809 L 719,808 L 720,807 L 720,805 L 721,804 L 721,796 L 722,795 L 722,785 L 723,784 L 723,779 L 724,778 L 724,775 L 725,774 L 725,771 L 726,770 L 726,767 L 727,766 L 727,764 L 728,763 L 728,761 L 729,760 L 729,758 L 730,757 L 730,756 L 731,755 L 731,753 L 732,752 L 732,750 L 733,749 L 733,748 L 734,747 L 734,745 L 735,744 L 735,743 L 736,742 L 736,740 L 737,739 L 737,738 L 738,737 L 738,736 L 739,735 L 739,733 L 740,732 L 740,731 L 741,730 L 741,728 L 742,727 L 742,725 L 743,724 L 743,723 L 744,722 L 744,720 L 745,719 L 745,717 L 746,716 L 746,713 L 747,712 L 747,709 L 748,708 L 748,705 L 749,704 L 749,699 L 750,698 L 750,691 L 751,690 L 751,670 L 750,669 L 750,663 L 749,662 L 749,658 L 748,657 L 748,654 L 747,653 L 747,651 L 746,650 L 746,648 L 745,647 L 745,646 L 744,645 L 744,643 L 743,642 L 743,641 L 742,640 L 742,639 L 741,638 L 741,637 L 739,635 L 739,634 L 737,632 L 737,631 L 728,622 L 727,622 L 725,620 L 724,620 L 722,618 L 721,618 L 720,617 L 719,617 L 718,616 L 717,616 L 716,615 L 714,615 L 713,614 L 710,614 L 709,613 L 706,613 L 705,612 L 672,612 L 671,613 L 669,613 L 668,612 L 657,612 L 656,611 L 652,611 L 651,610 L 649,610 L 648,609 L 646,609 L 645,608 L 643,608 L 642,607 L 641,607 L 640,606 L 639,606 L 638,605 L 637,605 L 635,603 L 634,603 L 633,602 L 632,602 L 629,599 L 628,599 L 625,596 L 624,596 L 614,586 L 614,585 L 610,581 L 610,580 L 608,578 L 608,577 L 606,575 L 606,574 L 605,573 L 605,572 L 604,571 L 604,570 L 606,568 L 607,568 L 608,567 L 609,567 L 614,562 L 614,561 L 615,560 L 615,559 L 616,558 L 616,555 L 617,554 L 617,546 L 616,545 L 616,542 L 615,541 L 615,539 L 613,537 L 613,534 L 616,531 L 617,531 L 619,529 L 620,529 L 621,528 L 622,528 L 623,527 L 624,527 L 625,526 L 626,526 L 627,525 L 628,525 L 629,524 L 630,524 L 631,523 L 632,523 L 633,522 L 634,522 L 635,521 L 636,521 L 637,520 L 638,520 L 639,519 L 640,519 L 642,517 L 643,517 L 644,516 L 645,516 L 646,515 L 647,515 L 648,514 L 649,514 L 651,512 L 652,512 L 653,511 L 654,511 L 656,509 L 657,509 L 659,507 L 660,507 L 664,503 L 665,503 L 669,499 L 669,498 L 673,494 L 673,493 L 675,491 L 675,490 L 676,489 L 676,488 L 677,487 L 677,486 L 678,485 L 678,484 L 679,483 L 679,481 L 680,480 L 680,478 L 681,477 L 681,475 L 682,474 L 682,471 L 683,470 L 683,466 L 684,465 L 684,463 L 685,462 L 685,460 L 686,459 L 686,457 L 687,456 L 687,455 L 688,454 L 688,453 L 689,452 L 689,451 L 690,450 L 690,449 L 692,447 L 692,446 L 695,443 L 695,442 L 708,429 L 709,429 L 712,426 L 713,426 L 716,423 L 717,423 L 718,422 L 719,422 L 721,420 L 722,420 L 724,418 L 725,418 L 726,417 L 727,417 L 728,416 L 729,416 L 730,415 L 731,415 L 732,414 L 734,414 L 735,413 L 736,413 L 737,412 L 739,412 L 740,411 L 741,411 L 742,410 L 744,410 L 745,409 L 748,409 L 749,408 L 751,408 L 752,407 L 755,407 L 756,406 L 760,406 L 761,405 L 766,405 L 767,404 L 775,404 L 776,403 L 785,403 L 788,406 L 788,409 L 789,410 L 789,412 L 790,413 L 790,414 L 792,416 L 792,417 L 798,423 L 799,423 L 801,425 L 802,425 L 803,426 L 804,426 L 805,427 L 806,427 L 807,428 L 808,428 L 809,429 L 810,429 L 811,430 L 813,430 L 814,431 L 816,431 L 817,432 L 819,432 L 820,433 L 826,433 L 827,434 L 829,434 L 830,435 L 831,435 L 834,438 L 834,439 L 836,441 L 836,442 L 838,444 L 838,445 L 845,452 L 846,452 L 847,453 L 849,453 L 850,454 L 856,454 L 857,455 L 857,456 L 858,457 L 858,460 L 859,461 L 859,464 L 860,465 L 860,468 L 861,469 L 861,471 L 862,472 L 862,474 L 863,475 L 863,476 L 864,477 L 864,478 L 865,479 L 865,480 L 869,484 L 869,485 L 870,485 L 873,488 L 874,488 L 875,489 L 876,489 L 877,490 L 878,490 L 879,491 L 881,491 L 882,492 L 895,492 L 896,491 L 898,491 L 899,490 L 900,490 L 901,489 L 903,489 L 910,496 L 910,497 L 912,499 L 912,500 L 914,502 L 914,503 L 915,504 L 915,506 L 916,507 L 916,508 L 917,509 L 917,512 L 918,513 L 918,517 L 919,518 L 919,535 L 918,536 L 918,540 L 917,541 L 917,543 L 916,544 L 916,546 L 915,547 L 915,549 L 914,550 L 914,551 L 913,552 L 913,553 L 912,554 L 912,555 L 910,557 L 910,558 L 909,559 L 909,560 L 907,562 L 907,563 L 905,565 L 905,566 L 903,568 L 903,569 L 900,572 L 900,573 L 896,577 L 896,578 L 890,584 L 890,585 L 870,605 L 869,605 L 864,610 L 863,610 L 859,614 L 858,614 L 856,616 L 855,616 L 853,618 L 852,618 L 850,620 L 849,620 L 848,621 L 847,621 L 846,622 L 845,622 L 844,623 L 843,623 L 842,624 L 840,624 L 839,625 L 836,625 L 835,626 L 827,626 L 826,625 L 823,625 L 822,624 L 820,624 L 819,623 L 818,623 L 817,622 L 816,622 L 814,620 L 813,620 L 806,613 L 806,612 L 804,610 L 804,609 L 803,608 L 803,607 L 802,606 L 802,605 L 801,604 L 801,603 L 800,602 L 800,601 L 799,600 L 799,598 L 798,597 L 798,594 L 797,593 L 797,590 L 796,589 L 796,582 L 795,581 L 795,567 L 796,566 L 796,558 L 797,557 L 797,552 L 798,551 L 798,548 L 799,547 L 799,543 L 800,542 L 800,539 L 801,538 L 801,536 L 802,535 L 802,532 L 803,531 L 803,528 L 804,527 L 804,525 L 805,524 L 805,521 L 806,520 L 806,517 L 807,516 L 807,514 L 808,513 L 808,511 L 809,510 L 809,508 L 810,507 L 810,505 L 811,504 L 811,502 L 812,501 L 812,499 L 813,498 L 813,496 L 814,495 L 814,492 L 815,491 L 815,489 L 816,488 L 816,484 L 817,483 L 817,466 L 816,465 L 816,461 L 815,460 L 815,458 L 814,457 L 814,456 L 813,455 L 813,454 L 812,453 L 812,452 L 810,450 L 810,449 L 808,447 L 807,447 L 806,446 L 805,446 L 804,445 L 800,445 L 799,446 L 797,446 L 793,450 L 793,451 L 792,452 L 792,459 L 793,460 L 793,468 L 792,469 L 792,477 L 791,478 L 791,482 L 790,483 L 790,486 L 789,487 L 789,490 L 788,491 L 788,493 L 787,494 L 787,497 L 786,498 L 786,500 L 785,501 L 785,503 L 784,504 L 784,506 L 783,507 L 783,509 L 782,510 L 782,513 L 781,514 L 781,516 L 780,517 L 780,519 L 779,520 L 779,523 L 778,524 L 778,526 L 777,527 L 777,530 L 776,531 L 776,534 L 775,535 L 775,538 L 774,539 L 774,542 L 773,543 L 773,547 L 772,548 L 772,553 L 771,554 L 771,559 L 770,560 L 770,570 L 769,571 L 769,582 L 770,583 L 770,592 L 771,593 L 771,597 L 772,598 L 772,602 L 773,603 L 773,605 L 774,606 L 774,608 L 775,609 L 775,611 L 776,612 L 776,613 L 777,614 L 777,615 L 778,616 L 778,617 L 779,618 L 779,619 L 780,620 L 780,621 L 781,622 L 781,623 L 783,625 L 783,626 L 786,629 L 786,630 L 796,640 L 797,640 L 799,642 L 800,642 L 802,644 L 803,644 L 804,645 L 805,645 L 806,646 L 807,646 L 808,647 L 809,647 L 810,648 L 811,648 L 812,649 L 814,649 L 815,650 L 818,650 L 819,651 L 823,651 L 824,652 L 834,652 L 835,651 L 841,651 L 842,650 L 845,650 L 846,649 L 848,649 L 849,648 L 851,648 L 852,647 L 854,647 L 855,646 L 856,646 L 857,645 L 858,645 L 859,644 L 860,644 L 861,643 L 862,643 L 863,642 L 864,642 L 866,640 L 867,640 L 868,639 L 869,639 L 871,637 L 872,637 L 875,634 L 876,634 L 879,631 L 880,631 L 883,628 L 884,628 L 890,622 L 891,622 L 902,611 L 903,611 L 904,612 L 904,613 L 905,614 L 905,615 L 906,616 L 906,618 L 907,619 L 907,620 L 908,621 L 908,623 L 909,624 L 909,626 L 910,627 L 910,629 L 911,630 L 911,632 L 912,633 L 912,634 L 913,635 L 913,637 L 914,638 L 914,639 L 915,640 L 915,642 L 916,643 L 916,644 L 917,645 L 917,646 L 918,647 L 918,648 L 919,649 L 919,651 L 921,653 L 921,654 L 922,655 L 922,656 L 923,657 L 923,658 L 924,659 L 924,660 L 926,662 L 926,663 L 928,665 L 928,666 L 930,668 L 930,669 L 933,672 L 933,673 L 946,686 L 947,686 L 948,687 L 949,687 L 950,688 L 958,688 L 959,687 L 960,687 L 961,686 L 962,686 L 964,684 L 964,683 L 965,682 L 965,681 L 966,680 L 966,678 L 967,677 L 967,675 L 966,674 L 966,671 L 965,670 L 965,669 L 960,664 L 960,663 L 953,656 L 953,655 L 950,652 L 950,651 L 947,648 L 947,647 L 946,646 L 946,645 L 944,643 L 944,642 L 943,641 L 943,640 L 942,639 L 942,638 L 941,637 L 941,636 L 940,635 L 940,634 L 939,633 L 939,632 L 938,631 L 938,629 L 937,628 L 937,627 L 936,626 L 936,624 L 935,623 L 935,622 L 934,621 L 934,619 L 933,618 L 933,616 L 932,615 L 932,613 L 931,612 L 931,609 L 930,608 L 930,605 L 929,604 L 929,601 L 928,600 L 928,596 L 927,595 L 927,587 L 928,586 L 928,583 L 929,582 L 929,581 L 930,580 L 930,578 L 931,577 L 931,576 L 932,575 L 932,574 L 933,573 L 933,572 L 934,571 L 934,570 L 935,569 L 935,568 L 936,567 L 936,566 L 937,565 L 937,564 L 938,563 L 938,562 L 939,561 L 939,559 L 940,558 L 940,557 L 941,556 L 941,554 L 942,553 L 942,550 L 943,549 L 943,547 L 944,546 L 944,541 L 945,540 L 945,517 L 944,516 L 944,511 L 943,510 L 943,507 L 942,506 L 942,504 L 941,503 L 941,501 L 940,500 L 940,498 L 939,497 L 939,496 L 938,495 L 938,494 L 937,493 L 937,492 L 936,491 L 936,490 L 934,488 L 934,487 L 932,485 L 932,484 L 929,481 L 929,480 L 925,476 L 924,476 L 922,474 L 922,473 L 924,471 L 924,470 L 929,465 L 929,464 L 931,462 L 931,461 L 933,459 L 933,458 L 934,457 L 934,456 L 935,455 L 935,454 L 936,453 L 936,452 L 937,451 L 937,449 L 938,448 L 938,444 L 939,443 L 939,440 L 938,439 L 938,435 L 937,434 L 937,432 L 936,431 L 936,430 L 934,428 L 934,427 L 932,425 L 932,424 L 927,419 L 926,419 L 924,417 L 923,417 L 921,415 L 920,415 L 919,414 L 918,414 L 917,413 L 915,413 L 914,412 L 912,412 L 911,411 L 908,411 L 907,410 L 902,410 L 901,409 L 900,410 L 899,410 L 898,409 L 895,409 L 894,408 L 892,408 L 889,405 L 888,405 L 885,402 L 884,402 L 880,398 L 879,398 L 876,395 L 875,395 L 873,393 L 872,393 L 871,392 L 870,392 L 869,391 L 868,391 L 866,389 L 866,388 L 865,387 L 865,384 L 864,383 L 864,382 L 863,381 L 863,380 L 862,379 L 862,378 L 861,377 L 861,376 L 860,375 L 860,374 L 859,373 L 859,372 L 857,370 L 857,369 L 846,358 L 845,358 L 844,357 L 843,357 L 841,355 L 839,355 L 838,354 L 836,354 L 835,353 L 832,353 L 831,352 Z" fill="black"/>
  <path d="M 431,320 L 430,321 L 426,321 L 425,322 L 423,322 L 422,323 L 421,323 L 420,324 L 419,324 L 418,325 L 417,325 L 415,327 L 414,327 L 411,330 L 410,330 L 403,337 L 402,337 L 394,345 L 394,346 L 393,347 L 394,348 L 394,350 L 395,351 L 395,352 L 396,352 L 398,354 L 408,354 L 409,355 L 410,355 L 413,358 L 413,359 L 418,364 L 419,364 L 420,365 L 421,365 L 422,366 L 423,366 L 424,367 L 432,367 L 433,366 L 435,366 L 436,365 L 437,365 L 440,362 L 441,362 L 441,361 L 443,359 L 443,358 L 445,356 L 445,354 L 446,353 L 446,350 L 447,349 L 447,338 L 448,337 L 448,335 L 449,334 L 449,332 L 450,331 L 450,326 L 449,325 L 449,324 L 448,324 L 446,322 L 445,322 L 444,321 L 442,321 L 441,320 Z" fill="black"/>
  <path d="M 321,212 L 320,213 L 309,213 L 308,214 L 299,214 L 298,215 L 292,215 L 291,216 L 286,216 L 285,217 L 282,217 L 281,218 L 278,218 L 277,219 L 274,219 L 273,220 L 271,220 L 270,221 L 268,221 L 267,222 L 265,222 L 264,223 L 263,223 L 262,224 L 260,224 L 259,225 L 258,225 L 257,226 L 256,226 L 255,227 L 254,227 L 253,228 L 252,228 L 251,229 L 250,229 L 249,230 L 248,230 L 247,231 L 246,231 L 245,232 L 244,232 L 243,233 L 242,233 L 240,235 L 239,235 L 238,236 L 237,236 L 235,238 L 234,238 L 233,239 L 232,239 L 230,241 L 229,241 L 227,243 L 226,243 L 223,246 L 222,246 L 219,249 L 218,249 L 215,252 L 214,252 L 209,257 L 208,257 L 202,263 L 201,263 L 171,293 L 171,294 L 158,307 L 158,308 L 147,319 L 147,320 L 139,328 L 139,329 L 134,334 L 134,335 L 130,339 L 130,340 L 127,343 L 127,344 L 125,346 L 125,347 L 123,349 L 123,350 L 122,351 L 122,352 L 120,354 L 120,355 L 119,356 L 119,357 L 118,358 L 118,359 L 117,360 L 117,362 L 116,363 L 116,364 L 115,365 L 115,367 L 114,368 L 114,371 L 113,372 L 113,376 L 112,377 L 112,386 L 113,387 L 113,391 L 114,392 L 114,395 L 115,396 L 115,397 L 116,398 L 116,400 L 117,401 L 117,402 L 118,403 L 118,404 L 119,405 L 119,406 L 121,408 L 121,409 L 122,410 L 122,411 L 124,413 L 124,414 L 127,417 L 127,418 L 130,421 L 130,422 L 132,424 L 132,425 L 134,427 L 134,428 L 136,430 L 136,431 L 137,432 L 137,434 L 138,435 L 138,437 L 139,438 L 139,443 L 138,444 L 138,448 L 137,449 L 137,453 L 136,454 L 136,458 L 135,459 L 135,462 L 134,463 L 134,467 L 133,468 L 133,471 L 132,472 L 132,475 L 131,476 L 131,479 L 130,480 L 130,482 L 129,483 L 129,485 L 128,486 L 128,489 L 127,490 L 127,492 L 126,493 L 126,495 L 125,496 L 125,498 L 124,499 L 124,501 L 123,502 L 123,504 L 122,505 L 122,507 L 121,508 L 121,509 L 120,510 L 120,512 L 119,513 L 119,515 L 118,516 L 118,517 L 117,518 L 117,519 L 116,520 L 116,522 L 115,523 L 115,524 L 114,525 L 114,526 L 113,527 L 113,529 L 112,530 L 112,531 L 111,532 L 111,533 L 110,534 L 110,535 L 109,536 L 109,537 L 108,538 L 108,539 L 107,540 L 107,541 L 106,542 L 106,543 L 105,544 L 105,545 L 104,546 L 104,547 L 103,548 L 103,549 L 101,551 L 101,552 L 100,553 L 100,554 L 99,555 L 99,556 L 97,558 L 97,559 L 96,560 L 96,561 L 94,563 L 94,564 L 93,565 L 93,566 L 91,568 L 91,569 L 89,571 L 89,572 L 87,574 L 87,575 L 85,577 L 85,578 L 82,581 L 82,582 L 79,585 L 79,586 L 76,589 L 76,590 L 70,596 L 70,597 L 57,610 L 57,611 L 56,612 L 56,613 L 55,614 L 55,622 L 56,623 L 56,624 L 61,629 L 63,629 L 64,630 L 71,630 L 72,629 L 73,629 L 75,627 L 76,627 L 92,611 L 92,610 L 97,605 L 97,604 L 100,601 L 100,600 L 103,597 L 103,596 L 106,593 L 106,592 L 109,589 L 109,588 L 111,586 L 111,585 L 113,583 L 113,582 L 115,580 L 115,579 L 117,577 L 117,576 L 118,575 L 118,574 L 120,572 L 120,571 L 121,570 L 121,569 L 123,567 L 123,566 L 124,565 L 124,564 L 125,563 L 125,562 L 127,560 L 127,559 L 128,558 L 128,557 L 129,556 L 129,555 L 130,554 L 130,553 L 131,552 L 131,551 L 132,550 L 132,549 L 133,548 L 133,547 L 134,546 L 134,545 L 135,544 L 135,543 L 136,542 L 136,541 L 137,540 L 137,539 L 138,538 L 138,537 L 139,536 L 139,535 L 140,534 L 140,532 L 141,531 L 141,530 L 142,529 L 142,528 L 143,527 L 143,525 L 144,524 L 144,523 L 145,522 L 145,520 L 146,519 L 146,517 L 147,516 L 147,515 L 148,514 L 148,512 L 149,511 L 149,509 L 150,508 L 150,506 L 151,505 L 151,503 L 152,502 L 152,500 L 153,499 L 153,497 L 154,496 L 154,494 L 155,493 L 155,491 L 156,490 L 156,487 L 157,486 L 157,484 L 158,483 L 158,480 L 159,479 L 159,476 L 160,475 L 160,472 L 161,471 L 161,468 L 162,467 L 162,464 L 163,463 L 163,462 L 165,460 L 166,460 L 175,469 L 176,469 L 192,485 L 193,485 L 215,507 L 216,507 L 221,512 L 222,512 L 226,516 L 227,516 L 230,519 L 231,519 L 233,521 L 234,521 L 235,522 L 236,522 L 238,524 L 239,524 L 240,525 L 241,525 L 242,526 L 243,526 L 245,528 L 247,528 L 248,529 L 249,529 L 250,530 L 251,530 L 252,531 L 254,531 L 255,532 L 257,532 L 258,533 L 260,533 L 261,534 L 265,534 L 266,535 L 283,535 L 284,534 L 287,534 L 288,533 L 290,533 L 291,532 L 293,532 L 294,531 L 295,531 L 296,530 L 297,530 L 299,528 L 300,528 L 302,526 L 303,526 L 305,524 L 306,524 L 314,516 L 314,515 L 317,512 L 317,511 L 319,509 L 319,508 L 321,506 L 321,505 L 322,504 L 322,503 L 324,501 L 324,500 L 325,499 L 325,498 L 326,497 L 326,495 L 327,494 L 327,493 L 328,492 L 328,490 L 329,489 L 329,488 L 330,487 L 330,484 L 331,483 L 331,481 L 332,480 L 332,477 L 333,476 L 333,472 L 334,471 L 334,465 L 335,464 L 335,455 L 336,454 L 336,437 L 335,436 L 335,425 L 334,424 L 334,416 L 333,415 L 333,409 L 332,408 L 332,403 L 331,402 L 331,397 L 330,396 L 330,392 L 329,391 L 329,387 L 328,386 L 328,381 L 327,380 L 327,375 L 326,374 L 326,369 L 325,368 L 325,361 L 324,360 L 324,353 L 323,352 L 323,343 L 322,342 L 322,325 L 321,324 L 321,313 L 320,312 L 320,309 L 319,308 L 319,307 L 318,306 L 318,305 L 314,301 L 313,301 L 312,300 L 309,300 L 308,299 L 307,300 L 304,300 L 303,301 L 302,301 L 298,305 L 298,306 L 297,307 L 297,308 L 296,309 L 296,312 L 295,313 L 295,322 L 294,323 L 294,324 L 295,325 L 295,341 L 296,342 L 296,352 L 297,353 L 297,360 L 298,361 L 298,367 L 299,368 L 299,375 L 300,376 L 300,381 L 301,382 L 301,386 L 302,387 L 302,392 L 303,393 L 303,397 L 304,398 L 304,403 L 305,404 L 305,408 L 306,409 L 306,414 L 307,415 L 307,420 L 308,421 L 308,428 L 309,429 L 309,457 L 308,458 L 308,465 L 307,466 L 307,470 L 306,471 L 306,474 L 305,475 L 305,478 L 304,479 L 304,480 L 303,481 L 303,483 L 302,484 L 302,485 L 301,486 L 301,487 L 300,488 L 300,489 L 299,490 L 299,491 L 298,492 L 298,493 L 295,496 L 295,497 L 287,505 L 286,505 L 284,507 L 283,507 L 282,508 L 281,508 L 280,509 L 277,509 L 276,510 L 271,510 L 270,509 L 267,509 L 266,508 L 264,508 L 263,507 L 262,507 L 261,506 L 260,506 L 259,505 L 258,505 L 257,504 L 256,504 L 255,503 L 254,503 L 253,502 L 252,502 L 250,500 L 249,500 L 247,498 L 246,498 L 242,494 L 241,494 L 236,489 L 235,489 L 224,478 L 223,478 L 186,441 L 185,441 L 173,429 L 172,429 L 160,417 L 160,416 L 153,409 L 153,408 L 150,405 L 150,404 L 148,402 L 148,401 L 146,399 L 146,398 L 145,397 L 145,396 L 143,394 L 143,392 L 142,391 L 142,390 L 141,389 L 141,386 L 140,385 L 140,378 L 141,377 L 141,374 L 142,373 L 142,372 L 143,371 L 143,370 L 144,369 L 144,368 L 146,366 L 146,365 L 148,363 L 148,362 L 150,360 L 150,359 L 152,357 L 152,356 L 155,353 L 155,352 L 160,347 L 160,346 L 165,341 L 165,340 L 171,334 L 171,333 L 178,326 L 178,325 L 185,318 L 185,317 L 194,308 L 194,307 L 217,284 L 218,284 L 225,277 L 226,277 L 230,273 L 231,273 L 235,269 L 236,269 L 238,267 L 239,267 L 241,265 L 242,265 L 244,263 L 245,263 L 247,261 L 248,261 L 249,260 L 250,260 L 252,258 L 253,258 L 255,256 L 256,256 L 257,255 L 258,255 L 259,254 L 260,254 L 261,253 L 262,253 L 263,252 L 264,252 L 265,251 L 266,251 L 267,250 L 268,250 L 269,249 L 270,249 L 271,248 L 273,248 L 274,247 L 275,247 L 276,246 L 278,246 L 279,245 L 282,245 L 283,244 L 285,244 L 286,243 L 290,243 L 291,242 L 295,242 L 296,241 L 302,241 L 303,240 L 315,240 L 316,239 L 342,239 L 343,240 L 356,240 L 357,241 L 364,241 L 365,242 L 371,242 L 372,243 L 377,243 L 378,244 L 382,244 L 383,245 L 387,245 L 388,246 L 392,246 L 393,247 L 396,247 L 397,248 L 399,248 L 400,249 L 403,249 L 404,250 L 406,250 L 407,251 L 409,251 L 410,252 L 412,252 L 413,253 L 415,253 L 416,254 L 418,254 L 419,255 L 420,255 L 421,256 L 423,256 L 424,257 L 425,257 L 426,258 L 427,258 L 428,259 L 429,259 L 430,260 L 431,260 L 433,262 L 434,262 L 435,263 L 436,263 L 437,264 L 438,264 L 441,267 L 442,267 L 445,270 L 446,270 L 457,281 L 457,282 L 460,285 L 460,286 L 463,289 L 463,290 L 464,291 L 464,292 L 465,293 L 465,294 L 467,296 L 467,298 L 468,299 L 468,300 L 469,301 L 469,302 L 470,303 L 470,304 L 471,305 L 471,307 L 472,308 L 472,311 L 473,312 L 473,315 L 474,316 L 474,321 L 475,322 L 475,327 L 476,328 L 476,330 L 477,331 L 477,333 L 478,334 L 478,336 L 479,337 L 479,338 L 481,340 L 481,341 L 482,342 L 482,343 L 484,345 L 484,346 L 495,357 L 496,357 L 499,360 L 500,360 L 502,362 L 503,362 L 505,364 L 506,364 L 507,365 L 508,365 L 509,366 L 510,366 L 512,368 L 513,368 L 514,369 L 515,369 L 516,370 L 517,370 L 518,371 L 519,371 L 520,372 L 522,372 L 523,373 L 524,373 L 525,374 L 526,374 L 527,375 L 528,375 L 529,376 L 530,376 L 531,377 L 532,377 L 533,378 L 534,378 L 535,379 L 536,379 L 537,380 L 538,380 L 539,381 L 541,381 L 542,382 L 543,382 L 544,383 L 545,383 L 546,384 L 547,384 L 548,385 L 549,385 L 550,386 L 551,386 L 552,387 L 553,387 L 555,389 L 556,389 L 557,390 L 558,390 L 560,392 L 561,392 L 563,394 L 563,395 L 564,396 L 563,397 L 563,398 L 562,399 L 562,400 L 559,403 L 559,404 L 557,406 L 557,407 L 556,408 L 556,409 L 555,410 L 555,412 L 554,413 L 554,423 L 555,424 L 555,425 L 556,426 L 556,427 L 557,428 L 557,429 L 566,438 L 567,438 L 569,440 L 570,440 L 571,441 L 572,441 L 573,442 L 574,442 L 576,444 L 577,444 L 578,445 L 580,445 L 581,446 L 582,446 L 583,447 L 584,447 L 585,448 L 587,448 L 588,449 L 588,451 L 587,452 L 587,453 L 586,454 L 586,455 L 584,457 L 584,458 L 583,459 L 583,460 L 581,462 L 581,463 L 580,464 L 580,465 L 578,467 L 578,468 L 576,470 L 576,471 L 574,473 L 574,474 L 572,476 L 572,477 L 570,479 L 570,480 L 565,485 L 565,486 L 553,498 L 552,498 L 548,502 L 547,502 L 545,504 L 544,504 L 543,505 L 542,505 L 540,507 L 539,507 L 538,508 L 537,508 L 536,509 L 535,509 L 534,510 L 532,510 L 531,511 L 530,511 L 529,512 L 527,512 L 526,513 L 524,513 L 523,514 L 520,514 L 519,515 L 515,515 L 514,516 L 510,516 L 509,517 L 501,517 L 500,518 L 482,518 L 481,517 L 472,517 L 471,516 L 465,516 L 464,515 L 460,515 L 459,514 L 454,514 L 453,513 L 449,513 L 448,512 L 444,512 L 443,511 L 439,511 L 438,510 L 434,510 L 433,509 L 428,509 L 427,508 L 422,508 L 421,507 L 415,507 L 414,506 L 405,506 L 404,505 L 399,505 L 398,506 L 394,506 L 393,507 L 392,507 L 390,509 L 389,509 L 388,510 L 388,511 L 387,512 L 387,513 L 386,514 L 386,520 L 387,521 L 387,522 L 391,526 L 392,526 L 393,527 L 395,527 L 396,528 L 398,528 L 399,529 L 399,530 L 397,532 L 397,533 L 391,539 L 391,540 L 388,543 L 388,544 L 386,546 L 386,547 L 384,549 L 384,550 L 383,551 L 383,552 L 381,554 L 381,555 L 380,556 L 380,557 L 379,558 L 379,559 L 378,560 L 378,562 L 377,563 L 377,564 L 376,565 L 376,566 L 375,567 L 375,569 L 374,570 L 374,572 L 373,573 L 373,575 L 372,576 L 372,579 L 371,580 L 371,584 L 370,585 L 370,589 L 369,590 L 369,596 L 368,597 L 368,624 L 369,625 L 369,632 L 370,633 L 370,638 L 371,639 L 371,643 L 372,644 L 372,648 L 373,649 L 373,653 L 374,654 L 374,657 L 375,658 L 375,661 L 376,662 L 376,665 L 377,666 L 377,668 L 378,669 L 378,672 L 379,673 L 379,675 L 380,676 L 380,678 L 381,679 L 381,682 L 382,683 L 382,685 L 383,686 L 383,688 L 384,689 L 384,691 L 385,692 L 385,695 L 386,696 L 386,698 L 387,699 L 387,703 L 388,704 L 388,707 L 389,708 L 389,712 L 390,713 L 390,717 L 391,718 L 391,724 L 392,725 L 392,733 L 393,734 L 393,764 L 392,765 L 392,774 L 391,775 L 391,780 L 390,781 L 390,786 L 389,787 L 389,790 L 388,791 L 388,795 L 387,796 L 387,800 L 386,801 L 386,805 L 387,806 L 387,808 L 388,809 L 388,810 L 392,814 L 393,814 L 394,815 L 397,815 L 398,816 L 399,815 L 402,815 L 403,814 L 404,814 L 405,813 L 406,813 L 408,811 L 408,810 L 410,808 L 410,806 L 411,805 L 411,803 L 412,802 L 412,799 L 413,798 L 413,794 L 414,793 L 414,790 L 415,789 L 415,785 L 416,784 L 416,779 L 417,778 L 417,772 L 418,771 L 418,763 L 419,762 L 419,732 L 418,731 L 418,723 L 417,722 L 417,716 L 416,715 L 416,710 L 415,709 L 415,705 L 414,704 L 414,701 L 413,700 L 413,696 L 412,695 L 412,692 L 411,691 L 411,689 L 410,688 L 410,685 L 409,684 L 409,682 L 408,681 L 408,678 L 407,677 L 407,675 L 406,674 L 406,671 L 405,670 L 405,668 L 404,667 L 404,664 L 403,663 L 403,661 L 402,660 L 402,657 L 401,656 L 401,654 L 400,653 L 400,650 L 399,649 L 399,646 L 398,645 L 398,642 L 397,641 L 397,637 L 396,636 L 396,631 L 395,630 L 395,624 L 394,623 L 394,598 L 395,597 L 395,591 L 396,590 L 396,586 L 397,585 L 397,582 L 398,581 L 398,579 L 399,578 L 399,576 L 400,575 L 400,574 L 401,573 L 401,571 L 402,570 L 402,569 L 403,568 L 403,567 L 405,565 L 405,564 L 407,562 L 407,561 L 410,558 L 410,557 L 417,550 L 418,550 L 421,547 L 422,547 L 424,545 L 425,545 L 426,544 L 427,544 L 428,543 L 429,543 L 430,542 L 432,542 L 433,541 L 434,541 L 435,540 L 438,540 L 439,539 L 443,539 L 444,538 L 450,538 L 451,539 L 456,539 L 457,540 L 461,540 L 462,541 L 468,541 L 469,542 L 476,542 L 477,543 L 506,543 L 507,542 L 513,542 L 514,541 L 519,541 L 520,540 L 523,540 L 524,539 L 527,539 L 528,538 L 530,538 L 531,537 L 533,537 L 534,536 L 536,536 L 537,535 L 539,535 L 540,534 L 541,534 L 542,533 L 544,533 L 545,532 L 546,532 L 547,531 L 548,531 L 549,530 L 550,530 L 551,529 L 552,529 L 554,527 L 555,527 L 556,526 L 557,526 L 559,524 L 560,524 L 562,522 L 563,522 L 566,519 L 567,519 L 571,515 L 572,515 L 582,505 L 582,504 L 587,499 L 587,498 L 590,495 L 590,494 L 593,491 L 593,490 L 595,488 L 595,487 L 597,485 L 597,484 L 599,482 L 599,481 L 601,479 L 601,478 L 602,477 L 602,476 L 603,475 L 603,474 L 605,472 L 605,471 L 606,470 L 606,469 L 607,468 L 607,467 L 609,465 L 609,464 L 610,463 L 610,462 L 611,461 L 611,460 L 612,459 L 612,458 L 613,457 L 613,456 L 614,455 L 614,454 L 615,453 L 615,452 L 616,451 L 616,450 L 618,448 L 618,447 L 619,446 L 619,445 L 620,444 L 620,443 L 621,442 L 621,441 L 622,440 L 622,439 L 623,438 L 623,436 L 624,435 L 624,434 L 625,433 L 625,432 L 626,431 L 626,429 L 627,428 L 627,427 L 628,426 L 628,423 L 629,422 L 629,417 L 630,416 L 630,409 L 629,408 L 629,404 L 628,403 L 628,402 L 627,401 L 627,399 L 625,397 L 625,396 L 622,393 L 622,392 L 621,391 L 620,391 L 617,388 L 616,388 L 614,386 L 613,386 L 612,385 L 611,385 L 609,383 L 608,383 L 607,382 L 606,382 L 605,381 L 603,381 L 602,380 L 601,380 L 600,379 L 599,379 L 598,378 L 597,378 L 596,377 L 594,377 L 593,376 L 592,376 L 591,375 L 589,375 L 588,374 L 587,374 L 586,373 L 584,373 L 583,372 L 582,372 L 581,371 L 579,371 L 578,370 L 577,370 L 576,369 L 574,369 L 573,368 L 572,368 L 571,367 L 570,367 L 569,366 L 568,366 L 567,365 L 566,365 L 565,364 L 564,364 L 563,363 L 562,363 L 561,362 L 560,362 L 559,361 L 558,361 L 557,360 L 556,360 L 555,359 L 554,359 L 553,358 L 552,358 L 551,357 L 550,357 L 549,356 L 548,356 L 547,355 L 545,355 L 544,354 L 543,354 L 542,353 L 541,353 L 540,352 L 539,352 L 538,351 L 537,351 L 536,350 L 534,350 L 533,349 L 532,349 L 531,348 L 530,348 L 529,347 L 528,347 L 527,346 L 526,346 L 525,345 L 524,345 L 522,343 L 521,343 L 520,342 L 519,342 L 516,339 L 515,339 L 509,333 L 509,332 L 507,330 L 507,329 L 505,327 L 505,325 L 504,324 L 504,323 L 503,322 L 503,320 L 502,319 L 502,316 L 501,315 L 501,313 L 500,312 L 500,309 L 499,308 L 499,305 L 498,304 L 498,302 L 497,301 L 497,299 L 496,298 L 496,296 L 495,295 L 495,293 L 494,292 L 494,291 L 493,290 L 493,289 L 492,288 L 492,286 L 491,285 L 491,284 L 490,283 L 490,282 L 489,281 L 489,280 L 487,278 L 487,277 L 486,276 L 486,275 L 484,273 L 484,272 L 482,270 L 482,269 L 480,267 L 480,266 L 476,262 L 476,261 L 465,250 L 464,250 L 460,246 L 459,246 L 456,243 L 455,243 L 453,241 L 452,241 L 450,239 L 449,239 L 448,238 L 447,238 L 445,236 L 444,236 L 443,235 L 442,235 L 441,234 L 440,234 L 439,233 L 438,233 L 437,232 L 435,232 L 434,231 L 433,231 L 432,230 L 431,230 L 430,229 L 428,229 L 427,228 L 426,228 L 425,227 L 423,227 L 422,226 L 420,226 L 419,225 L 417,225 L 416,224 L 414,224 L 413,223 L 411,223 L 410,222 L 407,222 L 406,221 L 403,221 L 402,220 L 399,220 L 398,219 L 395,219 L 394,218 L 390,218 L 389,217 L 385,217 L 384,216 L 379,216 L 378,215 L 372,215 L 371,214 L 364,214 L 363,213 L 351,213 L 350,212 Z" fill="black"/>
</svg>
